STARTFONT 2.1
COMMENT Copyright (C) 1994 Aleksei Rudnev <alex@kiae.su>
COMMENT Portions Copyright (C) 1994-1995 Cronyx Ltd.
COMMENT Changes Copyright (C) 1996-1997 by Andrey A. Chernov, Moscow, Russia.
COMMENT This software may be used, modified, copied, distributed, and sold,
COMMENT in both source and binary form provided that the copyright
COMMENT and these terms are retained. Under no circumstances is the author
COMMENT responsible for the proper functioning of this software, nor does
COMMENT the author assume any responsibility for damages incurred with its use.
COMMENT $XFree86: xc/fonts/bdf/cyrillic/koi10x16b.bdf,v 3.1.4.1 1998/02/01 16:04:17 robin Exp $
FONT -Cronyx-Fixed-Bold-R-Normal--16-120-100-100-C-80-KOI8-R
SIZE 16 100 100
FONTBOUNDINGBOX 10 16 0 -2
STARTPROPERTIES 20
FONTNAME_REGISTRY ""
FOUNDRY "Cronyx"
FAMILY_NAME "Fixed"
WEIGHT_NAME "Bold"
SLANT "R"
SETWIDTH_NAME "Normal"
ADD_STYLE_NAME ""
PIXEL_SIZE 16
POINT_SIZE 120
RESOLUTION_X 100
RESOLUTION_Y 100
SPACING "C"
AVERAGE_WIDTH 80
CHARSET_REGISTRY "KOI8"
CHARSET_ENCODING "R"
DEFAULT_CHAR 32
FONT_DESCENT 2
FONT_ASCENT 14
COPYRIGHT "Copyright (C) 1994 Aleksei Rudnev <alex@kiae.su>, Portions Copyright (C) 1996-1997 by Andrey A. Chernov, Moscow, Russia."
_XMBDFED_INFO "Edited with xmbdfed 2.7."
ENDPROPERTIES
CHARS 179
STARTCHAR 002B
ENCODING 10
SWIDTH 450 0
DWIDTH 10 0
BBX 10 16 0 -2
BITMAP
0000
0000
0000
0000
0000
0000
0000
0000
0000
7FC0
0000
0000
0000
0000
0000
0000
ENDCHAR
STARTCHAR 002B
ENCODING 11
SWIDTH 450 0
DWIDTH 10 0
BBX 10 16 0 -2
BITMAP
0000
0C00
0C00
0C00
0C00
0C00
0C00
0C00
0C00
7C00
0000
0000
0000
0000
0000
0000
ENDCHAR
STARTCHAR 002B
ENCODING 12
SWIDTH 450 0
DWIDTH 10 0
BBX 10 16 0 -2
BITMAP
0000
0000
0000
0000
0000
0000
0000
0000
0000
7C00
0C00
0C00
0C00
0C00
0C00
0C00
ENDCHAR
STARTCHAR 002B
ENCODING 13
SWIDTH 450 0
DWIDTH 10 0
BBX 10 16 0 -2
BITMAP
0000
0000
0000
0000
0000
0000
0000
0000
0000
0FC0
0C00
0C00
0C00
0C00
0C00
0C00
ENDCHAR
STARTCHAR 002B
ENCODING 14
SWIDTH 450 0
DWIDTH 10 0
BBX 10 16 0 -2
BITMAP
0000
0C00
0C00
0C00
0C00
0C00
0C00
0C00
0C00
0FC0
0000
0000
0000
0000
0000
0000
ENDCHAR
STARTCHAR 002B
ENCODING 15
SWIDTH 450 0
DWIDTH 10 0
BBX 10 16 0 -2
BITMAP
0000
0C00
0C00
0C00
0C00
0C00
0C00
0C00
0C00
7FC0
0C00
0C00
0C00
0C00
0C00
0C00
ENDCHAR
STARTCHAR 002B
ENCODING 16
SWIDTH 450 0
DWIDTH 10 0
BBX 10 16 0 -2
BITMAP
0000
0000
0000
0000
0000
0000
0000
0000
0000
7FC0
0000
0000
0000
0000
0000
0000
ENDCHAR
STARTCHAR 002B
ENCODING 17
SWIDTH 450 0
DWIDTH 10 0
BBX 10 16 0 -2
BITMAP
0000
0000
0000
0000
0000
0000
0000
0000
0000
7FC0
0000
0000
0000
0000
0000
0000
ENDCHAR
STARTCHAR 002B
ENCODING 18
SWIDTH 450 0
DWIDTH 10 0
BBX 10 16 0 -2
BITMAP
0000
0000
0000
0000
0000
0000
0000
0000
0000
7FC0
0000
0000
0000
0000
0000
0000
ENDCHAR
STARTCHAR 002B
ENCODING 19
SWIDTH 450 0
DWIDTH 10 0
BBX 10 16 0 -2
BITMAP
0000
0000
0000
0000
0000
0000
0000
0000
0000
7FC0
0000
0000
0000
0000
0000
0000
ENDCHAR
STARTCHAR 002B
ENCODING 20
SWIDTH 450 0
DWIDTH 10 0
BBX 10 16 0 -2
BITMAP
0000
0000
0000
0000
0000
0000
0000
0000
0000
7FC0
0000
0000
0000
0000
0000
0000
ENDCHAR
STARTCHAR 002B
ENCODING 21
SWIDTH 450 0
DWIDTH 10 0
BBX 10 16 0 -2
BITMAP
0000
0C00
0C00
0C00
0C00
0C00
0C00
0C00
0C00
0FC0
0C00
0C00
0C00
0C00
0C00
0C00
ENDCHAR
STARTCHAR 002B
ENCODING 22
SWIDTH 450 0
DWIDTH 10 0
BBX 10 16 0 -2
BITMAP
0000
0C00
0C00
0C00
0C00
0C00
0C00
0C00
0C00
7C00
0C00
0C00
0C00
0C00
0C00
0C00
ENDCHAR
STARTCHAR 002B
ENCODING 23
SWIDTH 450 0
DWIDTH 10 0
BBX 10 16 0 -2
BITMAP
0000
0C00
0C00
0C00
0C00
0C00
0C00
0C00
0C00
7FC0
0000
0000
0000
0000
0000
0000
ENDCHAR
STARTCHAR 002B
ENCODING 24
SWIDTH 450 0
DWIDTH 10 0
BBX 10 16 0 -2
BITMAP
0000
0000
0000
0000
0000
0000
0000
0000
0000
7FC0
0C00
0C00
0C00
0C00
0C00
0C00
ENDCHAR
STARTCHAR 002B
ENCODING 25
SWIDTH 450 0
DWIDTH 10 0
BBX 10 16 0 -2
BITMAP
0000
0C00
0C00
0C00
0C00
0C00
0C00
0C00
0C00
0C00
0C00
0C00
0C00
0C00
0C00
0C00
ENDCHAR
STARTCHAR 0020
ENCODING 32
SWIDTH 450 0
DWIDTH 10 0
BBX 10 16 0 -2
BITMAP
0000
0000
0000
0000
0000
0000
0000
0000
0000
0000
0000
0000
0000
0000
0000
0000
ENDCHAR
STARTCHAR 0021
ENCODING 33
SWIDTH 450 0
DWIDTH 10 0
BBX 10 16 0 -2
BITMAP
0000
0000
0000
0000
0C00
0C00
0C00
0C00
0C00
0C00
0C00
0000
0C00
0C00
0000
0000
ENDCHAR
STARTCHAR 0022
ENCODING 34
SWIDTH 450 0
DWIDTH 10 0
BBX 10 16 0 -2
BITMAP
0000
0000
7700
3300
3300
6600
0000
0000
0000
0000
0000
0000
0000
0000
0000
0000
ENDCHAR
STARTCHAR 0023
ENCODING 35
SWIDTH 450 0
DWIDTH 10 0
BBX 10 16 0 -2
BITMAP
0000
0000
0000
0000
1B00
1B00
1B00
7F00
3600
3600
7F00
6C00
6C00
6C00
0000
0000
ENDCHAR
STARTCHAR 0024
ENCODING 36
SWIDTH 450 0
DWIDTH 10 0
BBX 10 16 0 -2
BITMAP
0000
0000
0000
0000
0C00
3F00
6D80
6C00
3C00
0F00
0D80
6D80
3F00
0C00
0000
0000
ENDCHAR
STARTCHAR 0025
ENCODING 37
SWIDTH 450 0
DWIDTH 10 0
BBX 10 16 0 -2
BITMAP
0000
0000
0000
0000
3180
6D80
6D00
3600
1800
1800
3700
6D80
6D80
4700
0000
0000
ENDCHAR
STARTCHAR 0026
ENCODING 38
SWIDTH 450 0
DWIDTH 10 0
BBX 10 16 0 -2
BITMAP
0000
0000
0000
0000
1E00
3300
3300
3300
1E00
3880
6D80
6700
6700
3980
0000
0000
ENDCHAR
STARTCHAR 0027
ENCODING 39
SWIDTH 450 0
DWIDTH 10 0
BBX 10 16 0 -2
BITMAP
0000
0000
1C00
0C00
0C00
1800
0000
0000
0000
0000
0000
0000
0000
0000
0000
0000
ENDCHAR
STARTCHAR 0028
ENCODING 40
SWIDTH 450 0
DWIDTH 10 0
BBX 10 16 0 -2
BITMAP
0000
0000
0000
0600
0C00
0C00
1800
1800
1800
1800
1800
1800
0C00
0C00
0600
0000
ENDCHAR
STARTCHAR 0029
ENCODING 41
SWIDTH 450 0
DWIDTH 10 0
BBX 10 16 0 -2
BITMAP
0000
0000
0000
3000
1800
1800
0C00
0C00
0C00
0C00
0C00
0C00
1800
1800
3000
0000
ENDCHAR
STARTCHAR 002A
ENCODING 42
SWIDTH 450 0
DWIDTH 10 0
BBX 10 16 0 -2
BITMAP
0000
0000
0000
0000
0000
0000
0C00
6D80
7F80
3E00
7F80
6D80
0C00
0000
0000
0000
ENDCHAR
STARTCHAR 002B
ENCODING 43
SWIDTH 450 0
DWIDTH 10 0
BBX 10 16 0 -2
BITMAP
0000
0000
0000
0000
0000
0000
0C00
0C00
0C00
7F80
0C00
0C00
0C00
0000
0000
0000
ENDCHAR
STARTCHAR 002C
ENCODING 44
SWIDTH 450 0
DWIDTH 10 0
BBX 10 16 0 -2
BITMAP
0000
0000
0000
0000
0000
0000
0000
0000
0000
0000
0000
0000
1C00
0C00
0800
1000
ENDCHAR
STARTCHAR 002D
ENCODING 45
SWIDTH 450 0
DWIDTH 10 0
BBX 10 16 0 -2
BITMAP
0000
0000
0000
0000
0000
0000
0000
0000
7E00
7E00
0000
0000
0000
0000
0000
0000
ENDCHAR
STARTCHAR 002E
ENCODING 46
SWIDTH 450 0
DWIDTH 10 0
BBX 10 16 0 -2
BITMAP
0000
0000
0000
0000
0000
0000
0000
0000
0000
0000
0000
0000
1C00
1C00
1C00
0000
ENDCHAR
STARTCHAR 002F
ENCODING 47
SWIDTH 450 0
DWIDTH 10 0
BBX 10 16 0 -2
BITMAP
0000
0000
0000
0000
0300
0300
0600
0C00
0C00
1800
1800
3000
6000
6000
0000
0000
ENDCHAR
STARTCHAR 0030
ENCODING 48
SWIDTH 450 0
DWIDTH 10 0
BBX 10 16 0 -2
BITMAP
0000
0000
0000
0000
1C00
3600
6300
6300
6300
6300
6300
6300
3600
1C00
0000
0000
ENDCHAR
STARTCHAR 0031
ENCODING 49
SWIDTH 450 0
DWIDTH 10 0
BBX 10 16 0 -2
BITMAP
0000
0000
0000
0000
0C00
1C00
3C00
0C00
0C00
0C00
0C00
0C00
0C00
3F00
0000
0000
ENDCHAR
STARTCHAR 0032
ENCODING 50
SWIDTH 450 0
DWIDTH 10 0
BBX 10 16 0 -2
BITMAP
0000
0000
0000
0000
3E00
6300
6300
0300
0E00
1800
3000
6000
6000
7F00
0000
0000
ENDCHAR
STARTCHAR 0033
ENCODING 51
SWIDTH 450 0
DWIDTH 10 0
BBX 10 16 0 -2
BITMAP
0000
0000
0000
0000
7F00
6300
0600
0C00
1E00
0300
0300
6300
6300
3E00
0000
0000
ENDCHAR
STARTCHAR 0034
ENCODING 52
SWIDTH 450 0
DWIDTH 10 0
BBX 10 16 0 -2
BITMAP
0000
0000
0000
0000
0600
0E00
1E00
3600
6600
6600
7F00
0600
0600
0600
0000
0000
ENDCHAR
STARTCHAR 0035
ENCODING 53
SWIDTH 450 0
DWIDTH 10 0
BBX 10 16 0 -2
BITMAP
0000
0000
0000
0000
7E00
6000
6000
6000
7E00
0300
0300
0300
6300
3E00
0000
0000
ENDCHAR
STARTCHAR 0036
ENCODING 54
SWIDTH 450 0
DWIDTH 10 0
BBX 10 16 0 -2
BITMAP
0000
0000
0000
0000
1E00
3000
6000
6000
7E00
6300
6300
6300
6300
3E00
0000
0000
ENDCHAR
STARTCHAR 0037
ENCODING 55
SWIDTH 450 0
DWIDTH 10 0
BBX 10 16 0 -2
BITMAP
0000
0000
0000
0000
7F00
0300
0300
0600
0600
0600
0C00
0C00
0C00
0C00
0000
0000
ENDCHAR
STARTCHAR 0038
ENCODING 56
SWIDTH 450 0
DWIDTH 10 0
BBX 10 16 0 -2
BITMAP
0000
0000
0000
0000
3E00
6300
6300
6300
3E00
6300
6300
6300
6300
3E00
0000
0000
ENDCHAR
STARTCHAR 0039
ENCODING 57
SWIDTH 450 0
DWIDTH 10 0
BBX 10 16 0 -2
BITMAP
0000
0000
0000
0000
3E00
6300
6300
6300
3F00
0300
0300
0300
0700
3C00
0000
0000
ENDCHAR
STARTCHAR 003A
ENCODING 58
SWIDTH 450 0
DWIDTH 10 0
BBX 10 16 0 -2
BITMAP
0000
0000
0000
0000
0000
0000
1C00
1C00
0000
0000
0000
1C00
1C00
0000
0000
0000
ENDCHAR
STARTCHAR 003B
ENCODING 59
SWIDTH 450 0
DWIDTH 10 0
BBX 10 16 0 -2
BITMAP
0000
0000
0000
0000
0000
0000
1C00
1C00
0000
0000
0000
1C00
0C00
0C00
1800
0000
ENDCHAR
STARTCHAR 003C
ENCODING 60
SWIDTH 450 0
DWIDTH 10 0
BBX 10 16 0 -2
BITMAP
0000
0000
0000
0000
0000
0300
0600
0C00
1800
3000
1800
0C00
0600
0300
0000
0000
ENDCHAR
STARTCHAR 003D
ENCODING 61
SWIDTH 450 0
DWIDTH 10 0
BBX 10 16 0 -2
BITMAP
0000
0000
0000
0000
0000
0000
7E00
7E00
0000
0000
7E00
7E00
0000
0000
0000
0000
ENDCHAR
STARTCHAR 003E
ENCODING 62
SWIDTH 450 0
DWIDTH 10 0
BBX 10 16 0 -2
BITMAP
0000
0000
0000
0000
0000
6000
3000
1800
0C00
0600
0C00
1800
3000
6000
0000
0000
ENDCHAR
STARTCHAR 003F
ENCODING 63
SWIDTH 450 0
DWIDTH 10 0
BBX 10 16 0 -2
BITMAP
0000
0000
0000
0000
3E00
6300
6300
0300
0600
0C00
0C00
0000
0C00
0C00
0000
0000
ENDCHAR
STARTCHAR 0040
ENCODING 64
SWIDTH 450 0
DWIDTH 10 0
BBX 10 16 0 -2
BITMAP
0000
0000
0000
0000
1E00
2300
4B00
5700
5300
5300
5300
4F00
2000
1F00
0000
0000
ENDCHAR
STARTCHAR 0041
ENCODING 65
SWIDTH 450 0
DWIDTH 10 0
BBX 10 16 0 -2
BITMAP
0000
0000
0000
0000
1C00
3600
3600
6300
6300
7F00
6300
6300
6300
6300
0000
0000
ENDCHAR
STARTCHAR 0042
ENCODING 66
SWIDTH 450 0
DWIDTH 10 0
BBX 10 16 0 -2
BITMAP
0000
0000
0000
0000
7C00
6300
6300
6300
7E00
6300
6300
6300
6300
7E00
0000
0000
ENDCHAR
STARTCHAR 0043
ENCODING 67
SWIDTH 450 0
DWIDTH 10 0
BBX 10 16 0 -2
BITMAP
0000
0000
0000
0000
3E00
6300
6300
6000
6000
6000
6000
6300
6300
3E00
0000
0000
ENDCHAR
STARTCHAR 0044
ENCODING 68
SWIDTH 450 0
DWIDTH 10 0
BBX 10 16 0 -2
BITMAP
0000
0000
0000
0000
7C00
6600
6300
6300
6300
6300
6300
6300
6600
7C00
0000
0000
ENDCHAR
STARTCHAR 0045
ENCODING 69
SWIDTH 450 0
DWIDTH 10 0
BBX 10 16 0 -2
BITMAP
0000
0000
0000
0000
7F00
6000
6000
6000
7E00
6000
6000
6000
6000
7F00
0000
0000
ENDCHAR
STARTCHAR 0046
ENCODING 70
SWIDTH 450 0
DWIDTH 10 0
BBX 10 16 0 -2
BITMAP
0000
0000
0000
0000
7F00
6000
6000
6000
7E00
6000
6000
6000
6000
6000
0000
0000
ENDCHAR
STARTCHAR 0047
ENCODING 71
SWIDTH 450 0
DWIDTH 10 0
BBX 10 16 0 -2
BITMAP
0000
0000
0000
0000
3E00
6300
6300
6000
6000
6F00
6300
6300
6700
3B00
0000
0000
ENDCHAR
STARTCHAR 0048
ENCODING 72
SWIDTH 450 0
DWIDTH 10 0
BBX 10 16 0 -2
BITMAP
0000
0000
0000
0000
6300
6300
6300
6300
7F00
6300
6300
6300
6300
6300
0000
0000
ENDCHAR
STARTCHAR 0049
ENCODING 73
SWIDTH 450 0
DWIDTH 10 0
BBX 10 16 0 -2
BITMAP
0000
0000
0000
0000
3F00
0C00
0C00
0C00
0C00
0C00
0C00
0C00
0C00
3F00
0000
0000
ENDCHAR
STARTCHAR 004A
ENCODING 74
SWIDTH 450 0
DWIDTH 10 0
BBX 10 16 0 -2
BITMAP
0000
0000
0000
0000
1F80
0600
0600
0600
0600
0600
0600
6600
6600
3C00
0000
0000
ENDCHAR
STARTCHAR 004B
ENCODING 75
SWIDTH 450 0
DWIDTH 10 0
BBX 10 16 0 -2
BITMAP
0000
0000
0000
0000
6300
6600
6C00
7800
7000
7000
7800
6C00
6600
6300
0000
0000
ENDCHAR
STARTCHAR 004C
ENCODING 76
SWIDTH 450 0
DWIDTH 10 0
BBX 10 16 0 -2
BITMAP
0000
0000
0000
0000
6000
6000
6000
6000
6000
6000
6000
6000
6000
7F00
0000
0000
ENDCHAR
STARTCHAR 004D
ENCODING 77
SWIDTH 450 0
DWIDTH 10 0
BBX 10 16 0 -2
BITMAP
0000
0000
0000
0000
6300
6300
7700
7F00
6B00
6300
6300
6300
6300
6300
0000
0000
ENDCHAR
STARTCHAR 004E
ENCODING 78
SWIDTH 450 0
DWIDTH 10 0
BBX 10 16 0 -2
BITMAP
0000
0000
0000
0000
6300
6300
7300
7B00
7B00
6F00
6F00
6700
6700
6300
0000
0000
ENDCHAR
STARTCHAR 004F
ENCODING 79
SWIDTH 450 0
DWIDTH 10 0
BBX 10 16 0 -2
BITMAP
0000
0000
0000
0000
3E00
6300
6300
6300
6300
6300
6300
6300
6300
3E00
0000
0000
ENDCHAR
STARTCHAR 0050
ENCODING 80
SWIDTH 450 0
DWIDTH 10 0
BBX 10 16 0 -2
BITMAP
0000
0000
0000
0000
7E00
6300
6300
6300
7E00
6000
6000
6000
6000
6000
0000
0000
ENDCHAR
STARTCHAR 0051
ENCODING 81
SWIDTH 450 0
DWIDTH 10 0
BBX 10 16 0 -2
BITMAP
0000
0000
0000
0000
3E00
6300
6300
6300
6300
6300
6300
7B00
6700
3E00
0380
0000
ENDCHAR
STARTCHAR 0052
ENCODING 82
SWIDTH 450 0
DWIDTH 10 0
BBX 10 16 0 -2
BITMAP
0000
0000
0000
0000
7E00
6300
6300
6300
7E00
6C00
6600
6600
6300
6300
0000
0000
ENDCHAR
STARTCHAR 0053
ENCODING 83
SWIDTH 450 0
DWIDTH 10 0
BBX 10 16 0 -2
BITMAP
0000
0000
0000
0000
3C00
6300
6300
6000
3800
0E00
0300
6300
6300
3E00
0000
0000
ENDCHAR
STARTCHAR 0054
ENCODING 84
SWIDTH 450 0
DWIDTH 10 0
BBX 10 16 0 -2
BITMAP
0000
0000
0000
0000
7F80
0C00
0C00
0C00
0C00
0C00
0C00
0C00
0C00
0C00
0000
0000
ENDCHAR
STARTCHAR 0055
ENCODING 85
SWIDTH 450 0
DWIDTH 10 0
BBX 10 16 0 -2
BITMAP
0000
0000
0000
0000
6300
6300
6300
6300
6300
6300
6300
6300
6300
3E00
0000
0000
ENDCHAR
STARTCHAR 0056
ENCODING 86
SWIDTH 450 0
DWIDTH 10 0
BBX 10 16 0 -2
BITMAP
0000
0000
0000
0000
60C0
71C0
71C0
3B80
3B80
1B00
1B00
0E00
0E00
0400
0000
0000
ENDCHAR
STARTCHAR 0057
ENCODING 87
SWIDTH 450 0
DWIDTH 10 0
BBX 10 16 0 -2
BITMAP
0000
0000
0000
0000
6300
6300
6300
6300
6B00
7F00
7700
7700
6300
6300
0000
0000
ENDCHAR
STARTCHAR 0058
ENCODING 88
SWIDTH 450 0
DWIDTH 10 0
BBX 10 16 0 -2
BITMAP
0000
0000
0000
0000
6300
6300
3600
3600
1C00
1C00
3600
3600
6300
6300
0000
0000
ENDCHAR
STARTCHAR 0059
ENCODING 89
SWIDTH 450 0
DWIDTH 10 0
BBX 10 16 0 -2
BITMAP
0000
0000
0000
0000
6180
7380
3300
3300
1E00
0C00
0C00
0C00
0C00
0C00
0000
0000
ENDCHAR
STARTCHAR 005A
ENCODING 90
SWIDTH 450 0
DWIDTH 10 0
BBX 10 16 0 -2
BITMAP
0000
0000
0000
0000
7F00
0300
0300
0600
0C00
1800
3000
6000
6000
7F00
0000
0000
ENDCHAR
STARTCHAR 005B
ENCODING 91
SWIDTH 450 0
DWIDTH 10 0
BBX 10 16 0 -2
BITMAP
0000
0000
0000
0F00
0C00
0C00
0C00
0C00
0C00
0C00
0C00
0C00
0C00
0C00
0F00
0000
ENDCHAR
STARTCHAR 005C
ENCODING 92
SWIDTH 450 0
DWIDTH 10 0
BBX 10 16 0 -2
BITMAP
0000
0000
0000
0000
6000
7000
3000
1800
1800
0C00
0C00
0600
0300
0300
0000
0000
ENDCHAR
STARTCHAR 005D
ENCODING 93
SWIDTH 450 0
DWIDTH 10 0
BBX 10 16 0 -2
BITMAP
0000
0000
0000
7800
1800
1800
1800
1800
1800
1800
1800
1800
1800
1800
7800
0000
ENDCHAR
STARTCHAR 005E
ENCODING 94
SWIDTH 450 0
DWIDTH 10 0
BBX 10 16 0 -2
BITMAP
0000
0000
1C00
3600
6300
0000
0000
0000
0000
0000
0000
0000
0000
0000
0000
0000
ENDCHAR
STARTCHAR 005F
ENCODING 95
SWIDTH 450 0
DWIDTH 10 0
BBX 10 16 0 -2
BITMAP
0000
0000
0000
0000
0000
0000
0000
0000
0000
0000
0000
0000
0000
7F00
7F00
0000
ENDCHAR
STARTCHAR 0060
ENCODING 96
SWIDTH 450 0
DWIDTH 10 0
BBX 10 16 0 -2
BITMAP
0000
0000
1800
1800
1C00
0C00
0000
0000
0000
0000
0000
0000
0000
0000
0000
0000
ENDCHAR
STARTCHAR 0061
ENCODING 97
SWIDTH 450 0
DWIDTH 10 0
BBX 10 16 0 -2
BITMAP
0000
0000
0000
0000
0000
0000
3E00
6300
0300
3F00
6300
6300
6700
3B00
0000
0000
ENDCHAR
STARTCHAR 0062
ENCODING 98
SWIDTH 450 0
DWIDTH 10 0
BBX 10 16 0 -2
BITMAP
0000
0000
0000
6000
6000
6000
6E00
7300
6300
6300
6300
6300
7300
6E00
0000
0000
ENDCHAR
STARTCHAR 0063
ENCODING 99
SWIDTH 450 0
DWIDTH 10 0
BBX 10 16 0 -2
BITMAP
0000
0000
0000
0000
0000
0000
3E00
6300
6000
6000
6000
6100
6300
3E00
0000
0000
ENDCHAR
STARTCHAR 0064
ENCODING 100
SWIDTH 450 0
DWIDTH 10 0
BBX 10 16 0 -2
BITMAP
0000
0000
0000
0300
0300
0300
3B00
6F00
6300
6300
6300
6300
6F00
3B00
0000
0000
ENDCHAR
STARTCHAR 0065
ENCODING 101
SWIDTH 450 0
DWIDTH 10 0
BBX 10 16 0 -2
BITMAP
0000
0000
0000
0000
0000
0000
3E00
6300
6300
7F00
6000
6000
6300
3E00
0000
0000
ENDCHAR
STARTCHAR 0066
ENCODING 102
SWIDTH 450 0
DWIDTH 10 0
BBX 10 16 0 -2
BITMAP
0000
0000
0000
0E00
1800
1800
1800
7E00
1800
1800
1800
1800
1800
1800
0000
0000
ENDCHAR
STARTCHAR 0067
ENCODING 103
SWIDTH 450 0
DWIDTH 10 0
BBX 10 16 0 -2
BITMAP
0000
0000
0000
0000
0000
0300
3B00
6600
6600
6600
3C00
2000
3E00
6300
6300
3E00
ENDCHAR
STARTCHAR 0068
ENCODING 104
SWIDTH 450 0
DWIDTH 10 0
BBX 10 16 0 -2
BITMAP
0000
0000
0000
6000
6000
6000
6E00
7300
6300
6300
6300
6300
6300
6300
0000
0000
ENDCHAR
STARTCHAR 0069
ENCODING 105
SWIDTH 450 0
DWIDTH 10 0
BBX 10 16 0 -2
BITMAP
0000
0000
0000
0C00
0C00
0000
1C00
0C00
0C00
0C00
0C00
0C00
0C00
3F00
0000
0000
ENDCHAR
STARTCHAR 006A
ENCODING 106
SWIDTH 450 0
DWIDTH 10 0
BBX 10 16 0 -2
BITMAP
0000
0000
0000
0600
0600
0000
0E00
0600
0600
0600
0600
0600
0600
0600
4C00
3800
ENDCHAR
STARTCHAR 006B
ENCODING 107
SWIDTH 450 0
DWIDTH 10 0
BBX 10 16 0 -2
BITMAP
0000
0000
0000
0000
6000
6000
6600
6C00
7800
7000
7800
6C00
6600
6300
0000
0000
ENDCHAR
STARTCHAR 006C
ENCODING 108
SWIDTH 450 0
DWIDTH 10 0
BBX 10 16 0 -2
BITMAP
0000
0000
0000
0000
1C00
0C00
0C00
0C00
0C00
0C00
0C00
0C00
0C00
3F00
0000
0000
ENDCHAR
STARTCHAR 006D
ENCODING 109
SWIDTH 450 0
DWIDTH 10 0
BBX 10 16 0 -2
BITMAP
0000
0000
0000
0000
0000
0000
7700
6D80
6D80
6D80
6D80
6D80
6D80
6D80
0000
0000
ENDCHAR
STARTCHAR 006E
ENCODING 110
SWIDTH 450 0
DWIDTH 10 0
BBX 10 16 0 -2
BITMAP
0000
0000
0000
0000
0000
0000
6E00
7300
6300
6300
6300
6300
6300
6300
0000
0000
ENDCHAR
STARTCHAR 006F
ENCODING 111
SWIDTH 450 0
DWIDTH 10 0
BBX 10 16 0 -2
BITMAP
0000
0000
0000
0000
0000
0000
3E00
6300
6300
6300
6300
6300
6300
3E00
0000
0000
ENDCHAR
STARTCHAR 0070
ENCODING 112
SWIDTH 450 0
DWIDTH 10 0
BBX 10 16 0 -2
BITMAP
0000
0000
0000
0000
0000
0000
6E00
7300
6300
6300
6300
6300
7300
6E00
6000
6000
ENDCHAR
STARTCHAR 0071
ENCODING 113
SWIDTH 450 0
DWIDTH 10 0
BBX 10 16 0 -2
BITMAP
0000
0000
0000
0000
0000
0000
3B00
6F00
6300
6300
6300
6300
6F00
3B00
0300
0300
ENDCHAR
STARTCHAR 0072
ENCODING 114
SWIDTH 450 0
DWIDTH 10 0
BBX 10 16 0 -2
BITMAP
0000
0000
0000
0000
0000
0000
6E00
7300
6300
6000
6000
6000
6000
6000
0000
0000
ENDCHAR
STARTCHAR 0073
ENCODING 115
SWIDTH 450 0
DWIDTH 10 0
BBX 10 16 0 -2
BITMAP
0000
0000
0000
0000
0000
0000
3E00
6300
6000
3800
0E00
0300
6300
3E00
0000
0000
ENDCHAR
STARTCHAR 0074
ENCODING 116
SWIDTH 450 0
DWIDTH 10 0
BBX 10 16 0 -2
BITMAP
0000
0000
0000
0000
1800
1800
7E00
1800
1800
1800
1800
1800
1800
0E00
0000
0000
ENDCHAR
STARTCHAR 0075
ENCODING 117
SWIDTH 450 0
DWIDTH 10 0
BBX 10 16 0 -2
BITMAP
0000
0000
0000
0000
0000
0000
6300
6300
6300
6300
6300
6300
6700
3B00
0000
0000
ENDCHAR
STARTCHAR 0076
ENCODING 118
SWIDTH 450 0
DWIDTH 10 0
BBX 10 16 0 -2
BITMAP
0000
0000
0000
0000
0000
0000
6300
6300
6300
3600
3600
3600
1C00
1C00
0000
0000
ENDCHAR
STARTCHAR 0077
ENCODING 119
SWIDTH 450 0
DWIDTH 10 0
BBX 10 16 0 -2
BITMAP
0000
0000
0000
0000
0000
0000
6180
6D80
6D80
6D80
6D80
6D80
6D80
3700
0000
0000
ENDCHAR
STARTCHAR 0078
ENCODING 120
SWIDTH 450 0
DWIDTH 10 0
BBX 10 16 0 -2
BITMAP
0000
0000
0000
0000
0000
0000
6300
6300
3600
1C00
1C00
3600
6300
6300
0000
0000
ENDCHAR
STARTCHAR 0079
ENCODING 121
SWIDTH 450 0
DWIDTH 10 0
BBX 10 16 0 -2
BITMAP
0000
0000
0000
0000
0000
0000
6300
6300
6300
6300
6300
3700
1B00
0300
0300
3E00
ENDCHAR
STARTCHAR 007A
ENCODING 122
SWIDTH 450 0
DWIDTH 10 0
BBX 10 16 0 -2
BITMAP
0000
0000
0000
0000
0000
0000
7F00
0300
0600
0C00
1800
3000
6000
7F00
0000
0000
ENDCHAR
STARTCHAR 007B
ENCODING 123
SWIDTH 450 0
DWIDTH 10 0
BBX 10 16 0 -2
BITMAP
0000
0000
0000
0E00
1800
1800
0C00
0C00
1800
1800
0C00
0C00
1800
1800
0E00
0000
ENDCHAR
STARTCHAR 007C
ENCODING 124
SWIDTH 450 0
DWIDTH 10 0
BBX 10 16 0 -2
BITMAP
0000
0000
0C00
0C00
0C00
0C00
0C00
0C00
0C00
0C00
0C00
0C00
0C00
0C00
0C00
0C00
ENDCHAR
STARTCHAR 007D
ENCODING 125
SWIDTH 450 0
DWIDTH 10 0
BBX 10 16 0 -2
BITMAP
0000
0000
0000
3800
0C00
0C00
1800
1800
0C00
0C00
1800
1800
0C00
0C00
3800
0000
ENDCHAR
STARTCHAR 007E
ENCODING 126
SWIDTH 450 0
DWIDTH 10 0
BBX 10 16 0 -2
BITMAP
0000
0000
0000
3980
6D80
6700
0000
0000
0000
0000
0000
0000
0000
0000
0000
0000
ENDCHAR
STARTCHAR 0020
ENCODING 154
SWIDTH 450 0
DWIDTH 10 0
BBX 10 16 0 -2
BITMAP
0000
0000
0000
0000
0000
0000
0000
0000
0000
0000
0000
0000
0000
0000
0000
0000
ENDCHAR
STARTCHAR 00A3
ENCODING 163
SWIDTH 450 0
DWIDTH 10 0
BBX 10 16 0 -2
BITMAP
0000
0000
3600
3600
0000
0000
3E00
6300
6300
7F00
6000
6000
6300
3E00
0000
0000
ENDCHAR
STARTCHAR 00B3
ENCODING 179
SWIDTH 450 0
DWIDTH 10 0
BBX 10 16 0 -2
BITMAP
3600
3600
0000
0000
7F00
6000
6000
6000
7E00
6000
6000
6000
6000
7F00
0000
0000
ENDCHAR
STARTCHAR copyright
ENCODING 191
SWIDTH 450 0
DWIDTH 10 0
BBX 10 16 0 -2
BITMAP
0000
0000
0000
1E00
2100
4880
5480
5080
5080
5480
4880
2100
1E00
0000
0000
0000
ENDCHAR
STARTCHAR 00C0
ENCODING 192
SWIDTH 450 0
DWIDTH 10 0
BBX 10 16 0 -2
BITMAP
0000
0000
0000
0000
0000
0000
6600
6B00
6B00
7B00
6B00
6B00
6B00
6600
0000
0000
ENDCHAR
STARTCHAR 00C1
ENCODING 193
SWIDTH 450 0
DWIDTH 10 0
BBX 10 16 0 -2
BITMAP
0000
0000
0000
0000
0000
0000
3E00
6300
0300
3F00
6300
6300
6700
3B00
0000
0000
ENDCHAR
STARTCHAR 00C2
ENCODING 194
SWIDTH 450 0
DWIDTH 10 0
BBX 10 16 0 -2
BITMAP
0000
0000
0000
0000
0000
0300
3E00
6000
6000
7E00
6300
6300
6300
3E00
0000
0000
ENDCHAR
STARTCHAR 00C3
ENCODING 195
SWIDTH 450 0
DWIDTH 10 0
BBX 10 16 0 -2
BITMAP
0000
0000
0000
0000
0000
0000
6600
6600
6600
6600
6600
6600
6600
7F00
0300
0600
ENDCHAR
STARTCHAR 00C4
ENCODING 196
SWIDTH 450 0
DWIDTH 10 0
BBX 10 16 0 -2
BITMAP
0000
0000
0000
0000
0000
0000
0F00
1B00
1B00
1B00
3300
3300
3300
7F80
6180
0000
ENDCHAR
STARTCHAR 00C5
ENCODING 197
SWIDTH 450 0
DWIDTH 10 0
BBX 10 16 0 -2
BITMAP
0000
0000
0000
0000
0000
0000
3E00
6300
6300
7F00
6000
6000
6300
3E00
0000
0000
ENDCHAR
STARTCHAR 00C6
ENCODING 198
SWIDTH 450 0
DWIDTH 10 0
BBX 10 16 0 -2
BITMAP
0000
0000
0000
0000
0000
0000
0C00
3F00
6D80
4C80
4C80
6D80
3F00
0C00
0C00
0000
ENDCHAR
STARTCHAR 00C7
ENCODING 199
SWIDTH 450 0
DWIDTH 10 0
BBX 10 16 0 -2
BITMAP
0000
0000
0000
0000
0000
0000
7E00
6000
6000
6000
6000
6000
6000
6000
0000
0000
ENDCHAR
STARTCHAR 00C8
ENCODING 200
SWIDTH 450 0
DWIDTH 10 0
BBX 10 16 0 -2
BITMAP
0000
0000
0000
0000
0000
0000
6300
6300
3600
1C00
1C00
3600
6300
6300
0000
0000
ENDCHAR
STARTCHAR 00C9
ENCODING 201
SWIDTH 450 0
DWIDTH 10 0
BBX 10 16 0 -2
BITMAP
0000
0000
0000
0000
0000
0000
6700
6700
6B00
6B00
7300
7300
6300
6300
0000
0000
ENDCHAR
STARTCHAR 00CA
ENCODING 202
SWIDTH 450 0
DWIDTH 10 0
BBX 10 16 0 -2
BITMAP
0000
6300
6300
3E00
0000
0000
6700
6700
6B00
6B00
7300
7300
6300
6300
0000
0000
ENDCHAR
STARTCHAR 00CB
ENCODING 203
SWIDTH 450 0
DWIDTH 10 0
BBX 10 16 0 -2
BITMAP
0000
0000
0000
0000
0000
0000
6700
6C00
7800
7000
7800
6C00
6600
6300
0000
0000
ENDCHAR
STARTCHAR 00CC
ENCODING 204
SWIDTH 450 0
DWIDTH 10 0
BBX 10 16 0 -2
BITMAP
0000
0000
0000
0000
0000
0000
1F00
1B00
1B00
1B00
1B00
3300
3300
6300
0000
0000
ENDCHAR
STARTCHAR 00CD
ENCODING 205
SWIDTH 450 0
DWIDTH 10 0
BBX 10 16 0 -2
BITMAP
0000
0000
0000
0000
0000
0000
6300
7700
7700
7F00
6B00
6300
6300
6300
0000
0000
ENDCHAR
STARTCHAR 00CE
ENCODING 206
SWIDTH 450 0
DWIDTH 10 0
BBX 10 16 0 -2
BITMAP
0000
0000
0000
0000
0000
0000
6300
6300
6300
7F00
6300
6300
6300
6300
0000
0000
ENDCHAR
STARTCHAR 00CF
ENCODING 207
SWIDTH 450 0
DWIDTH 10 0
BBX 10 16 0 -2
BITMAP
0000
0000
0000
0000
0000
0000
3E00
6300
6300
6300
6300
6300
6300
3E00
0000
0000
ENDCHAR
STARTCHAR 00D0
ENCODING 208
SWIDTH 450 0
DWIDTH 10 0
BBX 10 16 0 -2
BITMAP
0000
0000
0000
0000
0000
0000
7F00
6300
6300
6300
6300
6300
6300
6300
0000
0000
ENDCHAR
STARTCHAR 00D1
ENCODING 209
SWIDTH 450 0
DWIDTH 10 0
BBX 10 16 0 -2
BITMAP
0000
0000
0000
0000
0000
0000
3F00
6300
6300
6300
3F00
1B00
3300
6300
0000
0000
ENDCHAR
STARTCHAR 00D2
ENCODING 210
SWIDTH 450 0
DWIDTH 10 0
BBX 10 16 0 -2
BITMAP
0000
0000
0000
0000
0000
0000
6E00
7300
6300
6300
6300
6300
7300
6E00
6000
6000
ENDCHAR
STARTCHAR 00D3
ENCODING 211
SWIDTH 450 0
DWIDTH 10 0
BBX 10 16 0 -2
BITMAP
0000
0000
0000
0000
0000
0000
3E00
6300
6000
6000
6000
6000
6300
3E00
0000
0000
ENDCHAR
STARTCHAR 00D4
ENCODING 212
SWIDTH 450 0
DWIDTH 10 0
BBX 10 16 0 -2
BITMAP
0000
0000
0000
0000
0000
0000
7F80
0C00
0C00
0C00
0C00
0C00
0C00
0C00
0000
0000
ENDCHAR
STARTCHAR 00D5
ENCODING 213
SWIDTH 450 0
DWIDTH 10 0
BBX 10 16 0 -2
BITMAP
0000
0000
0000
0000
0000
0000
6300
6300
3600
3600
1C00
1C00
1800
1800
3000
7000
ENDCHAR
STARTCHAR 00D6
ENCODING 214
SWIDTH 450 0
DWIDTH 10 0
BBX 10 16 0 -2
BITMAP
0000
0000
0000
0000
0000
0000
6D80
6D80
2D00
1E00
1E00
2D00
6D80
6D80
0000
0000
ENDCHAR
STARTCHAR 00D7
ENCODING 215
SWIDTH 450 0
DWIDTH 10 0
BBX 10 16 0 -2
BITMAP
0000
0000
0000
0000
0000
0000
7E00
6300
6300
7E00
6300
6300
6300
7E00
0000
0000
ENDCHAR
STARTCHAR 00D8
ENCODING 216
SWIDTH 450 0
DWIDTH 10 0
BBX 10 16 0 -2
BITMAP
0000
0000
0000
0000
0000
0000
6000
6000
6000
7E00
6300
6300
6300
7E00
0000
0000
ENDCHAR
STARTCHAR 00D9
ENCODING 217
SWIDTH 450 0
DWIDTH 10 0
BBX 10 16 0 -2
BITMAP
0000
0000
0000
0000
0000
0000
6300
6300
6300
7300
6B00
6B00
6B00
7300
0000
0000
ENDCHAR
STARTCHAR 00DA
ENCODING 218
SWIDTH 450 0
DWIDTH 10 0
BBX 10 16 0 -2
BITMAP
0000
0000
0000
0000
0000
0000
3E00
6300
0300
0E00
0E00
0300
6300
3E00
0000
0000
ENDCHAR
STARTCHAR 00DB
ENCODING 219
SWIDTH 450 0
DWIDTH 10 0
BBX 10 16 0 -2
BITMAP
0000
0000
0000
0000
0000
0000
6D80
6D80
6D80
6D80
6D80
6D80
6D80
7F80
0000
0000
ENDCHAR
STARTCHAR 00DC
ENCODING 220
SWIDTH 450 0
DWIDTH 10 0
BBX 10 16 0 -2
BITMAP
0000
0000
0000
0000
0000
0000
3C00
6600
0300
3F00
0300
0300
6600
3C00
0000
0000
ENDCHAR
STARTCHAR 00DD
ENCODING 221
SWIDTH 450 0
DWIDTH 10 0
BBX 10 16 0 -2
BITMAP
0000
0000
0000
0000
0000
0000
DB00
DB00
DB00
DB00
DB00
DB00
DB00
FF80
0180
0300
ENDCHAR
STARTCHAR 00DE
ENCODING 222
SWIDTH 450 0
DWIDTH 10 0
BBX 10 16 0 -2
BITMAP
0000
0000
0000
0000
0000
0000
6300
6300
6300
6300
6700
3F00
0300
0300
0000
0000
ENDCHAR
STARTCHAR 00DF
ENCODING 223
SWIDTH 450 0
DWIDTH 10 0
BBX 10 16 0 -2
BITMAP
0000
0000
0000
0000
0000
0000
7800
5800
1800
1F00
1980
1980
1B80
1F00
0000
0000
ENDCHAR
STARTCHAR 00E0
ENCODING 224
SWIDTH 450 0
DWIDTH 10 0
BBX 10 16 0 -2
BITMAP
0000
0000
0000
0000
6E00
6B00
6B00
6B00
7B00
6B00
6B00
6B00
6B00
6E00
0000
0000
ENDCHAR
STARTCHAR 00E1
ENCODING 225
SWIDTH 450 0
DWIDTH 10 0
BBX 10 16 0 -2
BITMAP
0000
0000
0000
0000
1C00
1C00
3600
3600
6300
6300
7F00
6300
6300
6300
0000
0000
ENDCHAR
STARTCHAR 00E2
ENCODING 226
SWIDTH 450 0
DWIDTH 10 0
BBX 10 16 0 -2
BITMAP
0000
0000
0000
0000
7E00
6000
6000
6000
7E00
6300
6300
6300
6300
7E00
0000
0000
ENDCHAR
STARTCHAR 00E3
ENCODING 227
SWIDTH 450 0
DWIDTH 10 0
BBX 10 16 0 -2
BITMAP
0000
0000
0000
0000
6300
6300
6300
6300
6300
6300
6300
6300
6300
7F80
0180
0300
ENDCHAR
STARTCHAR 00E4
ENCODING 228
SWIDTH 450 0
DWIDTH 10 0
BBX 10 16 0 -2
BITMAP
0000
0000
0000
0000
0F00
1B00
1B00
1B00
3300
3300
3300
6300
6300
FF80
C180
0000
ENDCHAR
STARTCHAR 00E5
ENCODING 229
SWIDTH 450 0
DWIDTH 10 0
BBX 10 16 0 -2
BITMAP
0000
0000
0000
0000
7F00
6100
6000
6000
7E00
6000
6000
6000
6100
7F00
0000
0000
ENDCHAR
STARTCHAR 00E6
ENCODING 230
SWIDTH 450 0
DWIDTH 10 0
BBX 10 16 0 -2
BITMAP
0000
0000
0000
0C00
0C00
3F00
6D80
6D80
6D80
6D80
6D80
3F00
0C00
0C00
0000
0000
ENDCHAR
STARTCHAR 00E7
ENCODING 231
SWIDTH 450 0
DWIDTH 10 0
BBX 10 16 0 -2
BITMAP
0000
0000
0000
0000
7F00
6000
6000
6000
6000
6000
6000
6000
6000
6000
0000
0000
ENDCHAR
STARTCHAR 00E8
ENCODING 232
SWIDTH 450 0
DWIDTH 10 0
BBX 10 16 0 -2
BITMAP
0000
0000
0000
0000
6300
6300
3600
3600
1C00
1C00
3600
3600
6300
6300
0000
0000
ENDCHAR
STARTCHAR 00E9
ENCODING 233
SWIDTH 450 0
DWIDTH 10 0
BBX 10 16 0 -2
BITMAP
0000
0000
0000
0000
6300
6700
6700
6F00
6B00
7B00
7B00
7300
6300
6300
0000
0000
ENDCHAR
STARTCHAR 00EA
ENCODING 234
SWIDTH 450 0
DWIDTH 10 0
BBX 10 16 0 -2
BITMAP
6300
6300
3E00
0000
6300
6700
6700
6F00
6F00
7B00
7B00
7300
6300
6300
0000
0000
ENDCHAR
STARTCHAR 00EB
ENCODING 235
SWIDTH 450 0
DWIDTH 10 0
BBX 10 16 0 -2
BITMAP
0000
0000
0000
0000
6300
6600
6C00
7800
7000
6000
7800
6C00
6600
6300
0000
0000
ENDCHAR
STARTCHAR 00EC
ENCODING 236
SWIDTH 450 0
DWIDTH 10 0
BBX 10 16 0 -2
BITMAP
0000
0000
0000
0000
0F00
1B00
1B00
1B00
1B00
1B00
1B00
3300
3300
6300
0000
0000
ENDCHAR
STARTCHAR 00ED
ENCODING 237
SWIDTH 450 0
DWIDTH 10 0
BBX 10 16 0 -2
BITMAP
0000
0000
0000
0000
6300
6300
7700
7700
7F00
6B00
6300
6300
6300
6300
0000
0000
ENDCHAR
STARTCHAR 00EE
ENCODING 238
SWIDTH 450 0
DWIDTH 10 0
BBX 10 16 0 -2
BITMAP
0000
0000
0000
0000
6300
6300
6300
6300
7F00
6300
6300
6300
6300
6300
0000
0000
ENDCHAR
STARTCHAR 00EF
ENCODING 239
SWIDTH 450 0
DWIDTH 10 0
BBX 10 16 0 -2
BITMAP
0000
0000
0000
0000
3E00
6300
6300
6300
6300
6300
6300
6300
6300
3E00
0000
0000
ENDCHAR
STARTCHAR 00F0
ENCODING 240
SWIDTH 450 0
DWIDTH 10 0
BBX 10 16 0 -2
BITMAP
0000
0000
0000
0000
7F00
6300
6300
6300
6300
6300
6300
6300
6300
6300
0000
0000
ENDCHAR
STARTCHAR 00F1
ENCODING 241
SWIDTH 450 0
DWIDTH 10 0
BBX 10 16 0 -2
BITMAP
0000
0000
0000
0000
3F00
6300
6300
6300
6300
3F00
3300
3300
6300
6300
0000
0000
ENDCHAR
STARTCHAR 00F2
ENCODING 242
SWIDTH 450 0
DWIDTH 10 0
BBX 10 16 0 -2
BITMAP
0000
0000
0000
0000
7E00
6300
6300
6300
6300
7E00
6000
6000
6000
6000
0000
0000
ENDCHAR
STARTCHAR 00F3
ENCODING 243
SWIDTH 450 0
DWIDTH 10 0
BBX 10 16 0 -2
BITMAP
0000
0000
0000
0000
3E00
6300
6300
6000
6000
6000
6000
6300
6300
3E00
0000
0000
ENDCHAR
STARTCHAR 00F4
ENCODING 244
SWIDTH 450 0
DWIDTH 10 0
BBX 10 16 0 -2
BITMAP
0000
0000
0000
0000
7F80
0C00
0C00
0C00
0C00
0C00
0C00
0C00
0C00
0C00
0000
0000
ENDCHAR
STARTCHAR 00F5
ENCODING 245
SWIDTH 450 0
DWIDTH 10 0
BBX 10 16 0 -2
BITMAP
0000
0000
0000
0000
6180
6180
3300
3300
1E00
1E00
0C00
0C00
1800
3800
0000
0000
ENDCHAR
STARTCHAR 00F6
ENCODING 246
SWIDTH 450 0
DWIDTH 10 0
BBX 10 16 0 -2
BITMAP
0000
0000
0000
0000
6D80
6D80
2D00
3F00
1E00
1E00
3F00
3F00
6D80
6D80
0000
0000
ENDCHAR
STARTCHAR 00F7
ENCODING 247
SWIDTH 450 0
DWIDTH 10 0
BBX 10 16 0 -2
BITMAP
0000
0000
0000
0000
7E00
6300
6300
6300
7E00
6300
6300
6300
6300
7E00
0000
0000
ENDCHAR
STARTCHAR 00F8
ENCODING 248
SWIDTH 450 0
DWIDTH 10 0
BBX 10 16 0 -2
BITMAP
0000
0000
0000
0000
6000
6000
6000
6000
7E00
6300
6300
6300
6300
7E00
0000
0000
ENDCHAR
STARTCHAR 00F9
ENCODING 249
SWIDTH 450 0
DWIDTH 10 0
BBX 10 16 0 -2
BITMAP
0000
0000
0000
0000
6180
6180
6180
6180
7980
6D80
6D80
6D80
6D80
7980
0000
0000
ENDCHAR
STARTCHAR 00FA
ENCODING 250
SWIDTH 450 0
DWIDTH 10 0
BBX 10 16 0 -2
BITMAP
0000
0000
0000
0000
3E00
6300
0300
0300
1E00
0300
0300
0300
6300
3E00
0000
0000
ENDCHAR
STARTCHAR 00FB
ENCODING 251
SWIDTH 450 0
DWIDTH 10 0
BBX 10 16 0 -2
BITMAP
0000
0000
0000
0000
6D80
6D80
6D80
6D80
6D80
6D80
6D80
6D80
6D80
7F80
0000
0000
ENDCHAR
STARTCHAR 00FC
ENCODING 252
SWIDTH 450 0
DWIDTH 10 0
BBX 10 16 0 -2
BITMAP
0000
0000
0000
0000
3C00
6600
0300
0300
3F00
0300
0300
0300
6600
3C00
0000
0000
ENDCHAR
STARTCHAR 00FD
ENCODING 253
SWIDTH 450 0
DWIDTH 10 0
BBX 10 16 0 -2
BITMAP
0000
0000
0000
0000
DB00
DB00
DB00
DB00
DB00
DB00
DB00
DB00
DB00
FF80
0180
0300
ENDCHAR
STARTCHAR 00FE
ENCODING 254
SWIDTH 450 0
DWIDTH 10 0
BBX 10 16 0 -2
BITMAP
0000
0000
0000
0000
6300
6300
6300
6300
6300
6300
3F00
0300
0300
0300
0000
0000
ENDCHAR
STARTCHAR 00FF
ENCODING 255
SWIDTH 450 0
DWIDTH 10 0
BBX 10 16 0 -2
BITMAP
0000
0000
0000
0000
7800
5800
1800
1800
1F00
1980
1980
1980
1980
1F00
0000
0000
ENDCHAR
ENDFONT
